PathFileType	4	(X/Y/Z)	Patient4_TMGait_0pt7_01_left_10.trc.trc
DataRate	CameraRate	NumFrames	NumMarkers	Units	OrigDataRate	OrigDataStartFrame	OrigNumFrames
82.840236686391	82.840236686391	4	33	mm	82.840236686391	36	       141
Frame#	Time	Sacral			L.Shoulder			Chest			R.Shoulder			Neck			R.ASIS			L.ASIS			R.Thigh.Superior			R.Thigh.Lateral			R.Thigh.Inferior			R.Patella			L.Thigh.Superior			L.Thigh.Lateral			L.Thigh.Inferior			L.Patella			L.Shank.Superior			L.Shank.Lateral			L.Shank.Inferior			R.Shank.Superior			R.Shank.Lateral			R.Shank.Inferior			R.Heel			R.Midfoot.Superior			R.Midfoot.Lateral			R.Toe			L.Heel			L.Midfoot.Lateral			L.Midfoot.Superior			L.Toe			L.Elbow			L.Wrist			R.Elbow			R.Wrist			
		X1	Y1	Z1	X2	Y2	Z2	X3	Y3	Z3	X4	Y4	Z4	X5	Y5	Z5	X6	Y6	Z6	X7	Y7	Z7	X8	Y8	Z8	X9	Y9	Z9	X10	Y10	Z10	X11	Y11	Z11	X12	Y12	Z12	X13	Y13	Z13	X14	Y14	Z14	X15	Y15	Z15	X16	Y16	Z16	X17	Y17	Z17	X18	Y18	Z18	X19	Y19	Z19	X20	Y20	Z20	X21	Y21	Z21	X22	Y22	Z22	X23	Y23	Z23	X24	Y24	Z24	X25	Y25	Z25	X26	Y26	Z26	X27	Y27	Z27	X28	Y28	Z28	X29	Y29	Z29	X30	Y30	Z30	X31	Y31	Z31	X32	Y32	Z32	X33	Y33	Z33	

36	11.852500000000	843.425787656845	999.976274300198	457.263879141866	1007.558652948124	1417.230350556382	257.591714192903	1127.484066515655	1348.398203235782	406.714191981213	1069.351668062228	1431.779352161960	585.592900878277	1030.817374070133	1482.806566951698	411.283876681473	1073.348498835851	928.867691936636	560.351493825743	1047.255955595485	949.070781993349	286.622293509274	1076.906966708094	716.827018666011	546.139847481493	975.978785705456	622.862004802958	611.657290224427	1045.028577850860	551.617853337579	541.107550035480	1021.592070384945	450.874152256077	558.344949146405	1127.662958772773	766.785328690071	327.429265314701	1067.831683005908	636.033926102077	260.595184999105	1166.034631178685	573.971996518648	325.090806678848	1181.208428462117	501.589975804366	331.949457813748	1154.846949624917	425.566429576078	322.251274903796	1070.848003630308	309.084244282124	268.597258084194	1127.076985520022	197.638128614007	334.521863580927	949.558927149710	383.742498703792	567.442269665027	834.143163031049	332.073132125735	628.693641118071	830.276928234232	221.971562384155	578.739592850436	636.115059578202	121.778153299354	550.773768319850	812.225121425467	109.591951315746	596.696243500031	706.170566890731	81.468465181576	627.167069395557	901.200272893029	35.170260798115	626.431840234115	1001.801941399191	40.311775638048	370.485410631423	1076.224958935588	37.210599918693	290.561946460230	1160.004215524304	97.425908746625	317.953161201304	1288.163219985395	41.537294154872	289.509631933385	847.327975454695	1100.208225917637	182.875067089088	777.726333753251	851.334442114472	212.472841191087	1237.569817913281	1138.823504901280	685.037125200591	1401.158945742915	1293.027905726647	577.496748098134	
37	11.864571428571	843.753501704369	1002.260748605218	454.105136016634	1009.223305254965	1420.122809396110	255.505459295806	1128.572402436245	1350.596288601682	404.752705077908	1070.053219570870	1433.595758177526	583.705349065463	1032.109734811507	1485.093862433689	409.437939279355	1073.616345103112	931.194446153535	556.792862183824	1047.400513755587	951.466296039488	283.194175235465	1080.883578481520	719.721823615193	543.887055891058	982.139392701668	624.294999502298	609.807766355064	1053.096103220770	553.625838291934	539.858143765209	1030.609812146142	451.574648852004	558.432808762587	1126.165177325220	766.716833441493	323.233922826453	1063.515915721947	636.389323268028	258.442527514925	1161.057792334897	573.285504871697	322.801619583611	1175.261086693803	501.128714491647	330.139184440805	1148.287775147436	425.488511708298	320.586789896670	1063.245463515308	309.342156892720	267.905092337142	1119.401863854326	197.890063839621	334.010648896256	956.433467061825	385.466163269976	567.446524605554	838.976127648684	338.008073120726	628.219482842355	832.448693388673	227.308321041574	579.718697938525	635.459543419594	136.109797052760	551.724170425503	810.231955526708	112.476909587455	597.775219818066	702.682053685402	90.769258937186	627.727256546817	893.211641864489	34.215947268829	626.174711526239	993.517044867352	40.546906682082	370.579980566941	1067.881143780378	37.456470495813	290.693495326490	1151.681037411643	97.657663980833	317.865732419566	1279.734004722923	41.639457165718	289.352655119031	852.245133407549	1101.365728111316	179.132774237014	788.248974648929	850.754051099959	207.312241856388	1229.326442456424	1134.577005014985	684.885718044332	1397.293974984220	1284.577015974254	577.995912635058	
38	11.876642857143	843.947157207265	1004.437668948450	451.051926304731	1010.884192477998	1422.963615344611	253.472396872476	1129.520570458732	1352.721661004671	402.932784651468	1070.444793043321	1435.297070146491	581.916088353099	1033.187347698569	1487.287793762231	407.666450861671	1073.703872246639	933.471920669103	553.372571377525	1047.403101667373	953.693553751752	279.913917689958	1085.000985396565	722.716060844123	541.719625894332	988.710164419819	625.761291626515	608.103490397119	1061.483171263109	555.808575642778	538.514660603622	1040.100406433867	452.510724906742	558.282770008867	1124.331369640137	766.455549180193	319.235117056867	1058.991325133992	636.752141938909	256.298445175446	1155.757003416872	572.566826293833	320.602160106483	1168.950038629728	500.629952018908	328.312459739547	1141.443000266291	425.374318403744	318.891887344963	1055.435653006070	309.512684251852	267.161874788439	1111.603821709527	198.097791919638	333.464310944727	963.970644004102	387.335445524906	567.281569955900	844.708812534326	344.084239017103	627.726364534032	835.450434565346	232.930651049029	580.600765694765	636.176415601353	151.239600513418	552.619206038958	808.822985328260	115.773123463022	598.701320959472	700.135306365394	100.968772717384	628.258725370282	885.300646556933	33.027188717666	625.950284226807	985.197975592259	40.777713915589	370.696574259224	1059.487254694050	37.644353233905	290.824278057157	1143.348088243886	97.791477761466	317.759542562796	1271.278338252313	41.617354362003	289.174865018444	857.220487897761	1102.512874667482	175.177410852945	800.007431721233	850.010732606525	201.709274754784	1219.802527524798	1130.089150658234	684.801796915571	1393.485426663078	1274.263490488877	578.910153957792	
39	11.888714285714	843.997022252271	1006.420892523954	448.092931884041	1012.514173340337	1425.640072859408	251.493923452556	1130.313198796275	1354.685156721445	401.260398884627	1070.506212273058	1436.808269301612	580.230361925181	1034.035823772897	1489.305504552539	405.960605098480	1073.594532586213	935.617182390869	550.119677770993	1047.301952833550	955.676229280607	276.793183851566	1089.192801827798	725.763661826064	539.582408084907	995.657886766549	627.244123216546	606.533205984779	1070.110156687324	558.154243955588	537.029640960418	1050.025163947571	453.650587919075	557.868707560951	1122.283434641962	766.039940353972	315.502436327262	1054.430431384836	637.105835509808	254.184122928904	1150.315726101664	571.822920013512	318.506113452794	1162.476917465662	500.090042299125	326.514874550837	1134.506855528899	425.194313089018	317.220266039215	1047.604536754822	309.597828325345	266.365501556010	1103.757292044602	198.229638304745	332.905976533023	972.111709188688	389.327368434027	566.913371657527	851.296802371492	350.211495676038	627.180308378869	839.264878903846	238.768988501770	581.311970664026	638.315258531097	166.912554249170	553.348078118267	808.043957763049	119.506841147837	599.427339625865	698.626012091151	111.948945064160	628.688684044379	877.588653952874	31.649377007543	625.805945775100	976.841265374354	40.988235166921	370.809678575362	1051.049519448240	37.773964155736	290.935048533835	1135.003122700969	97.836466382484	317.642974740777	1262.806506173890	41.485657966487	288.990017274619	862.221621842535	1103.549742067926	171.024360521374	812.893188502081	849.112639682008	195.682075629765	1209.094514761015	1125.440532909315	684.716296828380	1389.683779592334	1262.065378049686	580.258436709404	
